<?xml version="1.0" encoding="iso-8859-1"?>
<!-- Generator: Adobe Illustrator 19.0.0, SVG Export Plug-In . SVG Version: 6.00 Build 0)  -->
<svg version="1.1" id="Capa_1" xmlns="http://www.w3.org/2000/svg" xmlns:xlink="http://www.w3.org/1999/xlink" x="0px" y="0px"
	 viewBox="0 0 512 512" style="enable-background:new 0 0 512 512;" xml:space="preserve">
<g>
	<g>
		<path d="M229.693,445.741h-73.688c-5.544,0-10.039,4.495-10.039,10.039c0,5.545,4.496,10.039,10.039,10.039h73.688
			c5.544,0,10.039-4.495,10.039-10.039C239.732,450.236,235.237,445.741,229.693,445.741z"/>
	</g>
</g>
<g>
	<g>
		<path d="M256.006,445.741c-12.919,0-12.941,20.078,0,20.078C268.926,465.82,268.947,445.741,256.006,445.741z"/>
	</g>
</g>
<g>
	<g>
		<path d="M404.936,249.576h-1.759l27.126-153.824c0.463-2.622-0.136-5.321-1.663-7.502c-1.527-2.181-3.858-3.666-6.48-4.128
			l-70.997-12.519c-5.451-0.961-10.667,2.682-11.629,8.143l-29.949,169.829h-7.498V46.08c0-25.408-20.677-46.08-46.09-46.08
			c-25.409,0-46.08,20.672-46.08,46.08v203.495h-1.505l-30.04-170.342c-0.131-0.746-0.348-1.454-0.628-2.124
			c-0.037-0.088-0.079-0.175-0.12-0.262c-0.128-0.285-0.269-0.562-0.423-0.831c-0.049-0.086-0.098-0.173-0.15-0.259
			c-0.196-0.321-0.406-0.632-0.635-0.928c-0.012-0.016-0.021-0.034-0.034-0.05l-0.021-0.027c-0.009-0.012-0.018-0.023-0.028-0.035
			l-47.156-60.093c-2.287-2.914-5.988-4.332-9.642-3.689c-3.648,0.643-6.645,3.243-7.798,6.763L87.972,90.29
			c-0.007,0.02-0.013,0.041-0.02,0.061l-0.007,0.021c-0.004,0.013-0.006,0.026-0.01,0.038c-0.117,0.362-0.209,0.734-0.285,1.11
			c-0.019,0.097-0.035,0.195-0.052,0.292c-0.052,0.304-0.089,0.612-0.112,0.924c-0.007,0.097-0.018,0.195-0.023,0.292
			c-0.018,0.387-0.019,0.777,0.009,1.171c0,0.005,0,0.01,0,0.015c0.025,0.34,0.067,0.682,0.128,1.025l27.219,154.336h-7.753
			c-8.165,0-15.841,3.179-21.607,8.945c-5.78,5.764-8.962,13.441-8.962,21.614c0,16.124,12.55,29.363,28.393,30.484l9.567,191.842
			c0.267,5.344,4.676,9.539,10.026,9.539h263.038c5.35,0,9.76-4.195,10.026-9.539l9.567-191.841
			c7.347-0.514,14.182-3.612,19.439-8.869c5.774-5.775,8.954-13.451,8.954-21.615C435.505,263.284,421.792,249.576,404.936,249.576z
			 M357.564,93.118l51.223,9.032L382.79,249.575h-52.818L357.564,93.118z M229.993,46.08c0.001-14.337,11.666-26.002,26.003-26.002
			c14.343,0,26.012,11.665,26.012,26.002v50.176h-52.014V46.08z M229.993,116.334h52.014v133.241h-52.014V116.334z M188.023,249.575
			h-16.215L144.616,95.379l15.725-2.773L188.023,249.575z M124.976,41.794l25.269,32.202l-18.949,3.341
			c-0.018,0.003-0.036,0.003-0.053,0.007c-0.018,0.003-0.035,0.009-0.053,0.012l-18.949,3.341L124.976,41.794z M109.116,101.638
			l15.727-2.773l26.577,150.71h-16.215L109.116,101.638z M377.968,491.922H134.034l-9.038-181.218h262.012L377.968,491.922z
			 M412.354,287.553c-1.981,1.982-4.615,3.073-7.417,3.073H107.063c-5.785,0-10.49-4.706-10.49-10.491
			c0-2.801,1.088-5.428,3.072-7.407c1.983-1.983,4.617-3.074,7.419-3.074h19.673c0.011,0,0.022,0.001,0.033,0.001
			s0.022-0.001,0.034-0.001h36.536c0.011,0,0.022,0.001,0.033,0.001s0.022-0.001,0.034-0.001h36.536
			c0.011,0,0.022,0.001,0.033,0.001s0.022-0.001,0.034-0.001h19.946h72.093h99.144c0.011,0,0.022,0.001,0.034,0.001
			c0.011,0,0.022-0.001,0.033-0.001h13.678c5.784-0.001,10.49,4.701,10.49,10.48C415.429,282.936,414.337,285.571,412.354,287.553z"
			/>
	</g>
</g>
<g>
</g>
<g>
</g>
<g>
</g>
<g>
</g>
<g>
</g>
<g>
</g>
<g>
</g>
<g>
</g>
<g>
</g>
<g>
</g>
<g>
</g>
<g>
</g>
<g>
</g>
<g>
</g>
<g>
</g>
</svg>
